<svg width="32" height="32" viewBox="0 0 32 32" fill="none" xmlns="http://www.w3.org/2000/svg">
<path d="M27.1563 16.7563L15.35 27.0031C15.2594 27.0813 15.1438 27.125 15.0219 27.125H12.2563C12.025 27.125 11.9188 26.8375 12.0938 26.6875L23.0375 17.1875H4.75C4.6125 17.1875 4.5 17.075 4.5 16.9375V15.0625C4.5 14.925 4.6125 14.8125 4.75 14.8125H23.0344L12.0906 5.3125C11.9156 5.15937 12.0219 4.875 12.2531 4.875H15.1125C15.1719 4.875 15.2313 4.89688 15.275 4.9375L27.1563 15.2437C27.2644 15.3378 27.3512 15.454 27.4106 15.5845C27.4701 15.7149 27.5008 15.8566 27.5008 16C27.5008 16.1434 27.4701 16.2851 27.4106 16.4155C27.3512 16.546 27.2644 16.6622 27.1563 16.7563V16.7563Z" fill="white"/>
</svg>
