<svg width="30" height="30" viewBox="0 0 30 30" fill="none" xmlns="http://www.w3.org/2000/svg">
<path d="M8.71097 8.71293C8.79806 8.62562 8.90151 8.55635 9.01541 8.50909C9.12931 8.46183 9.25141 8.4375 9.37472 8.4375C9.49804 8.4375 9.62014 8.46183 9.73404 8.50909C9.84793 8.55635 9.95139 8.62562 10.0385 8.71293L14.9997 13.6761L19.961 8.71293C20.0481 8.62576 20.1516 8.55662 20.2655 8.50944C20.3794 8.46227 20.5015 8.43799 20.6247 8.43799C20.748 8.43799 20.8701 8.46227 20.9839 8.50944C21.0978 8.55662 21.2013 8.62576 21.2885 8.71293C21.3756 8.80009 21.4448 8.90357 21.492 9.01746C21.5391 9.13134 21.5634 9.25341 21.5634 9.37668C21.5634 9.49995 21.5391 9.62201 21.492 9.73589C21.4448 9.84978 21.3756 9.95326 21.2885 10.0404L16.3253 15.0017L21.2885 19.9629C21.3756 20.0501 21.4448 20.1536 21.492 20.2675C21.5391 20.3813 21.5634 20.5034 21.5634 20.6267C21.5634 20.7499 21.5391 20.872 21.492 20.9859C21.4448 21.0998 21.3756 21.2033 21.2885 21.2904C21.2013 21.3776 21.0978 21.4467 20.9839 21.4939C20.8701 21.5411 20.748 21.5654 20.6247 21.5654C20.5015 21.5654 20.3794 21.5411 20.2655 21.4939C20.1516 21.4467 20.0481 21.3776 19.961 21.2904L14.9997 16.3273L10.0385 21.2904C9.95131 21.3776 9.84783 21.4467 9.73394 21.4939C9.62006 21.5411 9.49799 21.5654 9.37472 21.5654C9.25145 21.5654 9.12939 21.5411 9.0155 21.4939C8.90162 21.4467 8.79814 21.3776 8.71097 21.2904C8.62381 21.2033 8.55466 21.0998 8.50749 20.9859C8.46032 20.872 8.43604 20.7499 8.43604 20.6267C8.43604 20.5034 8.46032 20.3813 8.50749 20.2675C8.55466 20.1536 8.62381 20.0501 8.71097 19.9629L13.6741 15.0017L8.71097 10.0404C8.62367 9.95334 8.5544 9.84989 8.50714 9.73599C8.45987 9.62209 8.43555 9.49999 8.43555 9.37668C8.43555 9.25336 8.45987 9.13126 8.50714 9.01736C8.5544 8.90347 8.62367 8.80001 8.71097 8.71293Z" fill="white"/>
</svg>
