<svg width="24" height="18" viewBox="0 0 24 18" fill="none" xmlns="http://www.w3.org/2000/svg">
<path d="M20.3169 1.49291C18.7869 0.802927 17.147 0.292942 15.432 0.00295008C15.4168 1.80813e-05 15.401 0.00190757 15.3868 0.00835726C15.3726 0.0148069 15.3608 0.0254978 15.353 0.0389491C15.143 0.407938 14.909 0.888925 14.7451 1.26891C12.9262 0.997158 11.0771 0.997158 9.25821 1.26891C9.07555 0.847786 8.86957 0.437162 8.64123 0.0389491C8.63349 0.0253321 8.62178 0.0143995 8.60767 0.00761008C8.59355 0.000820641 8.5777 -0.00150277 8.56223 0.000950046C6.84828 0.290942 5.20833 0.800927 3.67737 1.49191C3.6642 1.49743 3.65304 1.50685 3.64538 1.51891C0.533465 6.09377 -0.31951 10.5556 0.0994778 14.9615C0.100644 14.9723 0.103993 14.9827 0.109322 14.9922C0.114652 15.0017 0.121849 15.0099 0.130477 15.0165C1.94682 16.3389 3.9727 17.3463 6.1233 17.9964C6.1383 18.001 6.15433 18.001 6.16932 17.9964C6.1843 17.9918 6.19754 17.9827 6.2073 17.9704C6.67008 17.3515 7.08017 16.6949 7.43327 16.0075C7.43817 15.9981 7.44099 15.9877 7.44155 15.9772C7.4421 15.9666 7.44038 15.956 7.43649 15.9461C7.43261 15.9363 7.42665 15.9274 7.41902 15.92C7.41138 15.9126 7.40226 15.907 7.39227 15.9035C6.74629 15.6602 6.12039 15.3667 5.52032 15.0255C5.50954 15.0194 5.50045 15.0106 5.49388 15.0001C5.4873 14.9896 5.48345 14.9776 5.48266 14.9652C5.48186 14.9528 5.48416 14.9404 5.48934 14.9291C5.49451 14.9178 5.50241 14.908 5.51232 14.9005C5.63832 14.8075 5.76431 14.7105 5.88431 14.6135C5.89511 14.6048 5.90812 14.5993 5.92189 14.5975C5.93566 14.5957 5.94966 14.5978 5.96231 14.6035C9.88919 16.3675 14.1421 16.3675 18.023 14.6035C18.0356 14.5975 18.0498 14.5951 18.0637 14.5967C18.0777 14.5983 18.091 14.6038 18.102 14.6125C18.222 14.7105 18.347 14.8075 18.4739 14.9005C18.484 14.9078 18.492 14.9175 18.4973 14.9287C18.5027 14.9399 18.5052 14.9522 18.5046 14.9646C18.504 14.977 18.5003 14.9891 18.4939 14.9997C18.4875 15.0103 18.4786 15.0192 18.4679 15.0255C17.87 15.3695 17.248 15.6605 16.595 15.9025C16.585 15.9061 16.5758 15.9119 16.5682 15.9193C16.5606 15.9268 16.5546 15.9358 16.5507 15.9457C16.5469 15.9556 16.5451 15.9663 16.5457 15.9769C16.5463 15.9876 16.5491 15.998 16.554 16.0075C16.914 16.6945 17.326 17.3484 17.779 17.9694C17.7884 17.9822 17.8015 17.9917 17.8165 17.9967C17.8316 18.0017 17.8478 18.002 17.863 17.9974C20.0173 17.3491 22.0464 16.3413 23.8648 15.0165C23.8737 15.0103 23.8811 15.0023 23.8866 14.993C23.8921 14.9837 23.8956 14.9733 23.8968 14.9625C24.3968 9.86866 23.0588 5.44279 20.3479 1.52091C20.3412 1.50816 20.3302 1.49823 20.3169 1.49291ZM8.02025 12.2786C6.83828 12.2786 5.86331 11.2096 5.86331 9.89866C5.86331 8.5867 6.81928 7.51873 8.02025 7.51873C9.23021 7.51873 10.1962 8.5957 10.1772 9.89866C10.1772 11.2106 9.22121 12.2786 8.02025 12.2786V12.2786ZM15.995 12.2786C14.8121 12.2786 13.8381 11.2096 13.8381 9.89866C13.8381 8.5867 14.7931 7.51873 15.995 7.51873C17.205 7.51873 18.171 8.5957 18.152 9.89866C18.152 11.2106 17.206 12.2786 15.995 12.2786V12.2786Z" fill="black"/>
</svg>
