<svg width="25" height="25" viewBox="0 0 25 25" fill="none" xmlns="http://www.w3.org/2000/svg">
<path fill-rule="evenodd" clip-rule="evenodd" d="M7.77637 1.10977C8.99824 1.05352 9.38783 1.04102 12.5003 1.04102C15.6128 1.04102 16.0024 1.05456 17.2232 1.10977C18.4441 1.16497 19.2774 1.35977 20.0066 1.64206C20.7701 1.9306 21.4628 2.38164 22.0357 2.96497C22.6191 3.53685 23.0691 4.22852 23.3566 4.9931C23.6399 5.72227 23.8337 6.5556 23.8899 7.77435C23.9462 8.99831 23.9587 9.38789 23.9587 12.4993C23.9587 15.6118 23.9451 16.0014 23.8899 17.2233C23.8347 18.4421 23.6399 19.2754 23.3566 20.0046C23.0691 20.7692 22.6183 21.4621 22.0357 22.0348C21.4628 22.6181 20.7701 23.0681 20.0066 23.3556C19.2774 23.6389 18.4441 23.8327 17.2253 23.8889C16.0024 23.9452 15.6128 23.9577 12.5003 23.9577C9.38783 23.9577 8.99824 23.9441 7.77637 23.8889C6.55762 23.8337 5.72428 23.6389 4.99512 23.3556C4.23045 23.0681 3.53764 22.6173 2.96491 22.0348C2.38197 21.4625 1.93086 20.7701 1.64303 20.0056C1.36074 19.2764 1.16699 18.4431 1.11074 17.2243C1.05449 16.0004 1.04199 15.6108 1.04199 12.4993C1.04199 9.38685 1.05553 8.99727 1.11074 7.77643C1.16595 6.5556 1.36074 5.72227 1.64303 4.9931C1.93129 4.2286 2.38274 3.53613 2.96595 2.96393C3.53787 2.38112 4.22998 1.93002 4.99408 1.64206C5.72324 1.35977 6.55658 1.16602 7.77533 1.10977H7.77637ZM17.1305 3.17227C15.9222 3.11706 15.5597 3.1056 12.5003 3.1056C9.44095 3.1056 9.07845 3.11706 7.87012 3.17227C6.75241 3.22331 6.14616 3.40977 5.74199 3.56706C5.20762 3.77539 4.82533 4.02227 4.42428 4.42331C4.04412 4.79315 3.75155 5.24339 3.56803 5.74102C3.41074 6.14518 3.22428 6.75143 3.17324 7.86914C3.11803 9.07747 3.10658 9.43997 3.10658 12.4993C3.10658 15.5587 3.11803 15.9212 3.17324 17.1296C3.22428 18.2473 3.41074 18.8535 3.56803 19.2577C3.75137 19.7546 4.04408 20.2056 4.42428 20.5754C4.79408 20.9556 5.24512 21.2483 5.74199 21.4316C6.14616 21.5889 6.75241 21.7754 7.87012 21.8264C9.07845 21.8816 9.43991 21.8931 12.5003 21.8931C15.5607 21.8931 15.9222 21.8816 17.1305 21.8264C18.2482 21.7754 18.8545 21.5889 19.2587 21.4316C19.793 21.2233 20.1753 20.9764 20.5764 20.5754C20.9566 20.2056 21.2493 19.7546 21.4326 19.2577C21.5899 18.8535 21.7764 18.2473 21.8274 17.1296C21.8826 15.9212 21.8941 15.5587 21.8941 12.4993C21.8941 9.43997 21.8826 9.07747 21.8274 7.86914C21.7764 6.75143 21.5899 6.14518 21.4326 5.74102C21.2243 5.20664 20.9774 4.82435 20.5764 4.42331C20.2065 4.04317 19.7563 3.75061 19.2587 3.56706C18.8545 3.40977 18.2482 3.22331 17.1305 3.17227ZM11.0368 16.0316C11.8541 16.3719 12.7643 16.4178 13.6117 16.1616C14.4592 15.9053 15.1914 15.3628 15.6833 14.6267C16.1751 13.8906 16.3962 13.0065 16.3087 12.1255C16.2212 11.2445 15.8305 10.4212 15.2035 9.79622C14.8037 9.39672 14.3203 9.09082 13.7882 8.90054C13.256 8.71027 12.6883 8.64035 12.1258 8.69582C11.5634 8.7513 11.0203 8.93078 10.5355 9.22136C10.0508 9.51194 9.63652 9.90637 9.32252 10.3763C9.00851 10.8462 8.80261 11.3799 8.71961 11.9389C8.63662 12.4979 8.67861 13.0684 8.84255 13.6093C9.0065 14.1501 9.28833 14.6479 9.66774 15.0668C10.0472 15.4856 10.5147 15.8152 11.0368 16.0316ZM8.33574 8.33476C8.88264 7.78786 9.53191 7.35404 10.2465 7.05806C10.961 6.76208 11.7269 6.60974 12.5003 6.60974C13.2738 6.60974 14.0396 6.76208 14.7542 7.05806C15.4687 7.35404 16.118 7.78786 16.6649 8.33476C17.2118 8.88167 17.6456 9.53093 17.9416 10.2455C18.2376 10.9601 18.3899 11.7259 18.3899 12.4993C18.3899 13.2728 18.2376 14.0386 17.9416 14.7532C17.6456 15.4678 17.2118 16.117 16.6649 16.6639C15.5604 17.7684 14.0623 18.389 12.5003 18.389C10.9383 18.389 9.44026 17.7684 8.33574 16.6639C7.23123 15.5594 6.61072 14.0614 6.61072 12.4993C6.61072 10.9373 7.23123 9.43928 8.33574 8.33476ZM19.6962 7.48685C19.8317 7.359 19.9402 7.20527 20.0152 7.03474C20.0903 6.86421 20.1303 6.68036 20.1331 6.49407C20.1358 6.30778 20.1011 6.12284 20.031 5.95019C19.961 5.77755 19.857 5.62071 19.7253 5.48897C19.5935 5.35723 19.4367 5.25326 19.2641 5.18322C19.0914 5.11318 18.9065 5.07849 18.7202 5.08121C18.5339 5.08392 18.35 5.12399 18.1795 5.19903C18.009 5.27408 17.8553 5.38257 17.7274 5.5181C17.4788 5.78167 17.3426 6.13177 17.3479 6.49407C17.3532 6.85637 17.4995 7.20235 17.7557 7.45856C18.0119 7.71477 18.3579 7.86104 18.7202 7.86633C19.0825 7.87161 19.4326 7.73548 19.6962 7.48685Z" fill="white"/>
</svg>
