<svg width="44" height="44" viewBox="0 0 44 44" fill="none" xmlns="http://www.w3.org/2000/svg">
<path d="M21.9998 40.3323C11.8798 40.3213 3.6775 32.119 3.6665 21.999V21.6323C3.86817 11.5582 12.164 3.53367 22.2382 3.66567C32.316 3.80133 40.3955 12.0422 40.3295 22.1182C40.2635 32.196 32.0777 40.3323 21.9998 40.3323ZM21.9705 36.6657H21.9998C25.8884 36.6618 29.6163 35.1138 32.3638 32.3621C35.1114 29.6104 36.6538 25.8802 36.6518 21.9917C36.6499 18.1031 35.1038 14.3745 32.3535 11.6255C29.6032 8.87657 25.8737 7.33234 21.9852 7.33234C18.0966 7.33234 14.3672 8.87657 11.6169 11.6255C8.86654 14.3745 7.32045 18.1031 7.31851 21.9917C7.31656 25.8802 8.85892 29.6104 11.6065 32.3621C14.3541 35.1138 18.0819 36.6618 21.9705 36.6657V36.6657ZM27.4998 29.3323H23.8332V14.6657H27.4998V29.3323ZM20.1665 29.3323H16.4998V14.6657H20.1665V29.3323Z" fill="white"/>
</svg>
