<svg width="44" height="44" viewBox="0 0 44 44" fill="none" xmlns="http://www.w3.org/2000/svg">
<path d="M22 2.75C11.3695 2.75 2.75 11.3695 2.75 22C2.75 32.6305 11.3695 41.25 22 41.25C32.6305 41.25 41.25 32.6305 41.25 22C41.25 11.3695 32.6305 2.75 22 2.75ZM22 37.9844C13.1742 37.9844 6.01562 30.8258 6.01562 22C6.01562 13.1742 13.1742 6.01562 22 6.01562C30.8258 6.01562 37.9844 13.1742 37.9844 22C37.9844 30.8258 30.8258 37.9844 22 37.9844Z" fill="white"/>
<path d="M29.0512 21.7132L19.6668 14.8898C19.6154 14.8525 19.5547 14.8302 19.4914 14.8252C19.4282 14.8203 19.3647 14.833 19.3082 14.862C19.2517 14.8909 19.2043 14.9349 19.1713 14.9891C19.1383 15.0433 19.1209 15.1056 19.1211 15.1691V28.816C19.1212 28.8793 19.1388 28.9414 19.1719 28.9954C19.205 29.0495 19.2523 29.0933 19.3087 29.1222C19.3651 29.151 19.4284 29.1638 19.4915 29.1591C19.5547 29.1543 19.6154 29.1322 19.6668 29.0953L29.0512 22.2675C29.0955 22.2362 29.1317 22.1946 29.1566 22.1464C29.1816 22.0982 29.1946 22.0447 29.1946 21.9904C29.1946 21.9361 29.1816 21.8826 29.1566 21.8343C29.1317 21.7861 29.0955 21.7446 29.0512 21.7132V21.7132Z" fill="white"/>
</svg>
