<svg width="24" height="19" viewBox="0 0 24 19" fill="none" xmlns="http://www.w3.org/2000/svg">
<path d="M24 2.18952C23.1174 2.55952 22.1693 2.80952 21.1726 2.92252C22.201 2.34031 22.9704 1.42398 23.3373 0.344518C22.371 0.887508 21.3135 1.26971 20.2107 1.47452C19.4691 0.725384 18.4868 0.228845 17.4164 0.0619924C16.3459 -0.10486 15.2472 0.0673099 14.2907 0.551771C13.3343 1.03623 12.5737 1.80588 12.127 2.74122C11.6803 3.67656 11.5725 4.72527 11.8203 5.72452C9.86244 5.63151 7.94711 5.15007 6.19863 4.31142C4.45016 3.47278 2.90761 2.29568 1.6711 0.856519C1.2483 1.54652 1.0052 2.34652 1.0052 3.19852C1.00473 3.96551 1.20437 4.72076 1.58641 5.39725C1.96846 6.07374 2.52109 6.65056 3.19528 7.07652C2.4134 7.05298 1.64877 6.8531 0.965031 6.49352V6.55352C0.964952 7.62926 1.35827 8.6719 2.07823 9.50451C2.7982 10.3371 3.80048 10.9084 4.915 11.1215C4.18968 11.3072 3.42923 11.3346 2.69109 11.2015C3.00555 12.1271 3.61807 12.9365 4.44291 13.5164C5.26776 14.0963 6.26363 14.4177 7.29111 14.4355C5.5469 15.7309 3.39282 16.4336 1.17537 16.4305C0.782575 16.4306 0.39011 16.4089 0 16.3655C2.25083 17.7347 4.87097 18.4613 7.5469 18.4585C16.6053 18.4585 21.5573 11.3605 21.5573 5.20452C21.5573 5.00452 21.552 4.80252 21.5425 4.60252C22.5057 3.94349 23.3372 3.12741 23.9979 2.19252L24 2.18952V2.18952Z" fill="black"/>
</svg>
