<svg width="25" height="19" viewBox="0 0 25 19" fill="none" xmlns="http://www.w3.org/2000/svg">
<path d="M25 2.18952C24.0806 2.55952 23.093 2.80952 22.0547 2.92252C23.126 2.34031 23.9275 1.42398 24.3097 0.344518C23.3031 0.887508 22.2016 1.26971 21.0528 1.47452C20.2803 0.725384 19.2571 0.228845 18.142 0.0619924C17.027 -0.10486 15.8825 0.0673099 14.8862 0.551771C13.8899 1.03623 13.0976 1.80588 12.6323 2.74122C12.167 3.67656 12.0547 4.72527 12.3128 5.72452C10.2734 5.63151 8.27824 5.15007 6.45691 4.31142C4.63558 3.47278 3.02876 2.29568 1.74073 0.856519C1.30032 1.54652 1.04708 2.34652 1.04708 3.19852C1.04659 3.96551 1.25455 4.72076 1.65251 5.39725C2.05048 6.07374 2.62614 6.65056 3.32842 7.07652C2.51396 7.05298 1.71747 6.8531 1.00524 6.49352V6.55352C1.00516 7.62926 1.41486 8.6719 2.16483 9.50451C2.91479 10.3371 3.95883 10.9084 5.11979 11.1215C4.36425 11.3072 3.57211 11.3346 2.80322 11.2015C3.13078 12.1271 3.76882 12.9365 4.62804 13.5164C5.48725 14.0963 6.52462 14.4177 7.59491 14.4355C5.77803 15.7309 3.53418 16.4336 1.22435 16.4305C0.815182 16.4306 0.406364 16.4089 0 16.3655C2.34462 17.7347 5.07392 18.4613 7.86136 18.4585C17.2972 18.4585 22.4555 11.3605 22.4555 5.20452C22.4555 5.00452 22.45 4.80252 22.4401 4.60252C23.4435 3.94349 24.3096 3.12741 24.9978 2.19252L25 2.18952Z" fill="white"/>
</svg>
